#!OML:ASF X:\für Bonn\!DataBase\2005_08_11_Bastian_Final\c3d\Bastian.ASF
:FULLY-SPECIFIED
:DEGREES
406
root -0.339934 1.57507 25.4439 -977.815 -3.11252 -896.294
lowerback 60.9128 5.65688 9.7832
upperback 23.5775 -4.46178 2.61408
thorax 5.75271 -9.38445 -0.629341
lowerneck -19.3676 -5.75468 -3.90255
upperneck 8.93768 -7.48818 5.02313
head 6.17807 -3.39745 1.412
rclavicle -3.18055e-014 9.54166e-015
rhumerus -76.1999 27.496 -105.907
rradius 70.0896
rwrist 13.1677
rhand -26.6861 -15.4126
rfingers 7.12502
rthumb -0.116936 -45.3923
lclavicle -3.18055e-014 9.54166e-015
lhumerus -247.971 -176.7 256.454
lradius 70.9633
lwrist 59.0519
lhand -42.9097 -2.82574
lfingers 7.12502
lthumb -15.7714 26.5517
rfemur -48.0455 0.478635 22.614
rtibia 72.1005
rfoot 12.4052 -1.11296
rtoes -16.8412
lfemur -65.3806 14.1474 -23.4686
ltibia 112.012
lfoot 12.1303 9.87396
ltoes 30.2315
407
root -0.335046 1.57008 25.451 -977.941 -3.15675 -896.416
lowerback 60.6791 5.64965 9.74095
upperback 23.6371 -4.46639 2.56088
thorax 5.81745 -9.36368 -0.686389
lowerneck -18.9934 -5.74549 -3.9175
upperneck 8.95342 -7.47938 5.0261
head 6.12378 -3.39662 1.42476
rclavicle -2.38542e-014 -1.43125e-014
rhumerus -76.6826 27.4795 -105.346
rradius 71.2468
rwrist 14.4137
rhand -26.3062 -15.1209
rfingers 7.12502
rthumb 0.249991 -45.1004
lclavicle -2.38542e-014 -1.43125e-014
lhumerus -247.927 -176.771 256.437
lradius 71.6256
lwrist 56.1046
lhand -42.8214 -3.85727
lfingers 7.12502
lthumb -15.6863 25.5269
rfemur -47.3839 0.632433 22.564
rtibia 71.2535
rfoot 12.678 -1.15993
rtoes -16.7576
lfemur -65.202 14.0614 -23.46
ltibia 111.933
lfoot 12.2248 9.92958
ltoes 30.2013
408
root -0.33112 1.56548 25.4578 -978.073 -3.17163 -896.532
lowerback 60.4481 5.63905 9.72514
upperback 23.6863 -4.45324 2.52657
thorax 5.87323 -9.33242 -0.738049
lowerneck -18.5892 -5.76116 -3.99066
upperneck 8.96509 -7.4978 5.07748
head 6.06868 -3.4079 1.45964
rclavicle 8.94531e-015 -2.54444e-014
rhumerus -77.119 27.4997 -104.685
rradius 72.3528
rwrist 15.483
rhand -25.9271 -14.7111
rfingers 7.12502
rthumb 0.616132 -44.6899
lclavicle 8.94531e-015 -2.54444e-014
lhumerus -247.849 -176.884 256.409
lradius 72.2212
lwrist 52.5837
lhand -42.6009 -5.18492
lfingers 7.12502
lthumb -15.474 24.2158
rfemur -46.7449 0.750384 22.5601
rtibia 70.4381
rfoot 12.9891 -1.12233
rtoes -16.9078
lfemur -65.0104 13.9789 -23.4202
ltibia 111.85
lfoot 12.3661 9.97843
ltoes 30.2727
409
root -0.327028 1.56044 25.4653 -978.21 -3.21682 -896.655
lowerback 60.2155 5.62748 9.69333
upperback 23.7443 -4.45364 2.46604
thorax 5.93698 -9.30624 -0.808458
lowerneck -18.2564 -5.76318 -4.00469
upperneck 9.05244 -7.51123 5.10774
head 6.04582 -3.41429 1.47672
rclavicle -6.55989e-015 -3.18055e-015
rhumerus -77.4666 27.6103 -104.041
rradius 73.3945
rwrist 16.2857
rhand -25.5752 -14.2636
rfingers 7.12502
rthumb 0.956053 -44.2412
lclavicle -6.55989e-015 -3.18055e-015
lhumerus -247.683 -177.171 256.237
lradius 72.6985
lwrist 48.5826
lhand -42.2522 -7.03932
lfingers 7.12502
lthumb -15.1381 22.387
rfemur -46.1244 0.868777 22.5157
rtibia 69.6484
rfoot 13.3947 -1.08202
rtoes -16.9432
lfemur -64.8139 13.8635 -23.4038
ltibia 111.756
lfoot 12.5017 10.0622
ltoes 30.319
410
root -0.32297 1.55552 25.4722 -978.349 -3.26098 -896.768
lowerback 59.9806 5.61178 9.67015
upperback 23.7988 -4.44961 2.41583
thorax 5.9983 -9.27692 -0.872149
lowerneck -17.901 -5.78788 -4.07082
upperneck 9.11853 -7.54628 5.1594
head 6.01614 -3.43238 1.50712
rclavicle 2.78299e-015 2.46493e-014
rhumerus -77.6162 27.737 -103.283
rradius 74.2282
rwrist 16.9377
rhand -25.251 -13.6815
rfingers 7.12502
rthumb 1.26919 -43.6575
lclavicle 2.78299e-015 2.46493e-014
lhumerus -247.446 -177.447 256.074
lradius 73.0513
lwrist 44.3117
lhand -42.0062 -9.23419
lfingers 7.12502
lthumb -14.9011 20.2099
rfemur -45.5443 0.969163 22.4848
rtibia 68.9012
rfoot 13.8764 -0.981933
rtoes -17.5599
lfemur -64.6023 13.7432 -23.3911
ltibia 111.657
lfoot 12.6853 10.0886
ltoes 30.1339
